<svg xmlns="http://www.w3.org/2000/svg" viewBox="0 0 64 64" role="img" aria-label="Wedding rings favicon">
  <defs>
    <linearGradient id="bg" x1="10" y1="8" x2="56" y2="58" gradientUnits="userSpaceOnUse">
      <stop stop-color="#fff7ed" />
      <stop offset="0.48" stop-color="#fdf2f8" />
      <stop offset="1" stop-color="#eef2ff" />
    </linearGradient>
    <linearGradient id="gold" x1="14" y1="24" x2="52" y2="49" gradientUnits="userSpaceOnUse">
      <stop stop-color="#f7d77e" />
      <stop offset="0.52" stop-color="#c99334" />
      <stop offset="1" stop-color="#8a5a17" />
    </linearGradient>
    <filter id="shadow" x="-20%" y="-20%" width="140%" height="140%">
      <feDropShadow dx="0" dy="2" stdDeviation="2" flood-color="#7f1d1d" flood-opacity="0.16" />
    </filter>
  </defs>

  <rect width="64" height="64" rx="18" fill="url(#bg)" />
  <path
    d="M32 16c-4.5-5-13-2.6-13 4.6 0 5 5.5 8.7 13 14.1 7.5-5.4 13-9.1 13-14.1C45 13.4 36.5 11 32 16Z"
    fill="#be3455"
  />
  <g fill="none" stroke="url(#gold)" stroke-linecap="round" filter="url(#shadow)">
    <circle cx="25" cy="39" r="13" stroke-width="6" />
    <circle cx="39" cy="39" r="13" stroke-width="6" />
    <path d="M25 26c3 7 11 7 14 0" stroke-width="2.2" opacity="0.7" />
  </g>
  <path d="M15 14l3 5 5-3-3 5 3 5-5-3-3 5 1-6-5-3 6-1z" fill="#ffffff" opacity="0.9" />
</svg>
